<svg xmlns="http://www.w3.org/2000/svg" version="1.1" viewBox="201 139.21 350 473.59">
 <defs>
  <clipPath id="b">
   <path d="m279 139.21h202v146.79h-202z"/>
  </clipPath>
  <clipPath id="a">
   <path d="m201 597h350v15.793h-350z"/>
  </clipPath>
 </defs>
 <path d="m326.12 226.15c-7.207 6.4727-13.445 14.078-18.352 22.418-6.7109 11.406-11.039 24.402-12.531 37.598 1.8086 18.188 5.082 34.594 9.2148 46.809 0.039062 0.10547 0.078125 0.21094 0.10938 0.32031 1.793 5.2461 3.7422 9.7109 5.8047 13.184 9.168 15.441 35.102 39.938 65.66 39.938 30.562 0 56.492-24.496 65.66-39.938 2.0586-3.4648 4.0039-7.9141 5.793-13.145 0.03125-0.10938 0.070313-0.21094 0.10938-0.31641 4.0977-12.094 7.3516-28.309 9.1719-46.293-2.1172-4.6641-3.6914-9.5625-4.668-14.582-0.23047-1.1758-0.42578-2.3555-0.58984-3.543-2.3555 2.2852-4.9414 4.3438-7.707 6.1406-1.2266 0.79297-2.793 0.83594-4.0547 0.10547s-2.0117-2.1094-1.9336-3.5664c0.66797-12.688-0.054688-25.477-2.1484-38.004-1.5039-9.0195-3.7227-17.93-6.6211-26.598-3.1523 6.957-8.2852 15.262-16.551 22.617-11.965 10.648-24.863 14.555-33.574 15.961-1.4922 0.23828-2.9805-0.40625-3.8281-1.6523-0.84766-1.2461-0.89453-2.8711-0.125-4.168 1.7031-2.8633 2.9297-5.9258 3.6562-9.125-3.418 2.5781-7.043 4.5312-10.848 5.832-5.0156 1.7148-8.9805 1.8945-13.176 2.0859-3.6602 0.16406-7.4453 0.33984-12.48 1.6172-5.0039 1.2695-9.8555 3.2852-14.418 5.9844-1.3594 0.80469-3.0703 0.70703-4.3281-0.25391-1.2578-0.95703-1.8086-2.5781-1.3945-4.1055zm84.406 66.527c-3.8125 0-6.8984-3.1211-6.8984-6.9727s3.0898-6.9727 6.8984-6.9727c3.8125 0 6.8984 3.1211 6.8984 6.9727 0.003906 3.8516-3.0859 6.9727-6.8984 6.9727zm-7.5781-45.715c0.5-0.085938 12.379-2.0898 21.137 4.1484 1.7461 1.2422 2.1523 3.668 0.91016 5.4141-0.75781 1.0625-1.9531 1.6289-3.1641 1.6289-0.77734 0-1.5664-0.23438-2.25-0.71875-6.043-4.3008-15.199-2.8398-15.289-2.8242-2.1094 0.36719-4.125-1.0391-4.4961-3.1484-0.37109-2.1172 1.0391-4.1289 3.1523-4.5zm-46.523 45.555c1.5039-1.5195 3.9531-1.5312 5.4766-0.039063 0.09375 0.089844 5.8477 5.5625 13.996 5.5625h0.03125 0.19922 0.03125c8.1758 0 13.938-5.5078 13.996-5.5625 1.5312-1.4883 3.9844-1.4688 5.4805 0.058594 1.4961 1.5234 1.4883 3.9648-0.03125 5.4688-0.32031 0.32031-8.0039 7.8008-19.445 7.8008h-0.046875l-0.17578-3.8828 0.007812 3.8828h-0.046875c-11.445 0-19.125-7.4805-19.445-7.8008-1.5273-1.5078-1.5352-3.9648-0.027344-5.4883zm-14.895 0.16016c-3.8125 0-6.8984-3.1211-6.8984-6.9727s3.0898-6.9727 6.8984-6.9727c3.8125 0 6.8984 3.1211 6.8984 6.9727s-3.0898 6.9727-6.8984 6.9727zm-13.559-41.566c8.7578-6.2383 20.621-4.2344 21.121-4.1484 2.1133 0.37109 3.5195 2.3867 3.1484 4.4961-0.37109 2.1094-2.3828 3.5234-4.4883 3.1484-0.18359-0.027344-9.2344-1.4805-15.281 2.8242-0.68359 0.48828-1.4688 0.71875-2.25 0.71875-1.2148 0-2.4062-0.56641-3.1641-1.6289-1.2383-1.7461-0.83203-4.168 0.91406-5.4102z"/>
 <path d="m378.7 559.57c-2.2461 1.1055-3.5938 3.4414-3.4297 5.9453 0.20703 3.1641 3.1836 5.7344 6.6367 5.7344h31.266c3.3906 0 6.2773-2.4336 6.5742-5.5391 0.25391-2.6484-1.2031-5.1562-3.6211-6.2383-4.4453-1.9883-7.6719-5.082-9.3281-8.9453-0.29688-0.69531-0.58594-1.418-0.85938-2.1641-1.4883-4.0625-2.293-11.047-2.3984-20.781h-12.207c-0.10547 9.7344-0.91016 16.719-2.3984 20.777l-0.19141 0.52734c-1.6641 4.5195-5.2305 8.3125-10.043 10.684z"/>
 <path d="m444.31 585.15c0 2.3359 1.7773 4.2383 3.9648 4.2383h49.191c2.1875 0 3.9648-1.9023 3.9648-4.2383 0-2.3359-1.7773-4.2383-3.9648-4.2383h-49.191c-2.1875 0-3.9648 1.8984-3.9648 4.2383z"/>
 <path d="m409.61 446.59h-4.0312c-2.1445 0-3.8828-1.7383-3.8828-3.8828v-8.0508c0-2.2969-1.875-4.168-4.1836-4.168-2.3086 0-4.1836 1.8711-4.1836 4.168v8.0508c0 2.1445-1.7383 3.8828-3.8828 3.8828h-4.0312c-2.3047 0-4.1836 1.8711-4.1836 4.168 0 2.3008 1.875 4.168 4.1836 4.168h1.5312c1.6172 0 3.0664 1.0039 3.6328 2.5195s0.13672 3.2227-1.082 4.2891c-2.6875 2.3477-4.1797 5.5391-4.2227 8.9961 3.8555-1.3281 8.1367-2.0781 12.238-2.0781 4.1016 0 8.3828 0.75 12.238 2.0781-0.042969-3.4609-1.5352-6.6484-4.2227-8.9961-1.2188-1.0625-1.6523-2.7734-1.082-4.2891 0.56641-1.5156 2.0156-2.5195 3.6328-2.5195h1.5312c2.3047 0 4.1836-1.8711 4.1836-4.168-0.003907-2.3008-1.8789-4.168-4.1836-4.168z"/>
 <path d="m409.44 519.82c-0.625-4.1172-2.1484-6.6367-3.1602-7.457-0.11719-0.066407-0.22656-0.13672-0.33594-0.21484-0.10547-0.050782-0.20312-0.082032-0.28516-0.082032h-16.285c-0.09375 0-0.20703 0.039063-0.32812 0.10156-0.09375 0.066406-0.18359 0.13281-0.28516 0.1875-1.0117 0.8125-2.543 3.3359-3.168 7.4648z"/>
 <path d="m413.74 484.48c0.44922-0.42969 1.043-0.99609 1.2812-1.3086-0.17969-0.76953-1.4141-1.9258-3.3789-3.0703-0.058593-0.035157-0.12109-0.058594-0.17969-0.097657-3.2227-1.832-8.3047-3.5898-13.953-3.5898-5.6484 0-10.73 1.7578-13.953 3.5898-0.054688 0.035157-0.11328 0.058594-0.16797 0.09375-1.9688 1.1406-3.207 2.3047-3.3867 3.0742 0.23828 0.30859 0.83203 0.87891 1.2812 1.3086 1.1914 1.1445 2.8281 2.7109 4.457 5.1133 3.2148 4.7461 4.4648 10.098 4.8438 14.703h13.863c0.37891-4.6094 1.6289-9.9609 4.8438-14.703 1.6211-2.4023 3.2539-3.9688 4.4492-5.1133z"/>
 <path d="m317.86 589.39h29.074c2.3359 0 4.2383-1.9023 4.2383-4.2383 0-2.3359-1.9023-4.2383-4.2383-4.2383h-29.074c-2.3359 0-4.2383 1.9023-4.2383 4.2383 0 2.3359 1.8984 4.2383 4.2383 4.2383z"/>
 <path d="m337.6 527.67h-10.402c-2.6797 0-4.8594 2.1797-4.8594 4.8594v2.8164h20.121v-2.8164c0-2.6797-2.1797-4.8594-4.8594-4.8594z"/>
 <path d="m339.28 488.44v-2.9648c0-3.7852-3.0898-6.8633-6.8828-6.8633s-6.8828 3.0781-6.8828 6.8633v2.9648c2.3555-0.54688 4.7266-0.83594 6.8828-0.83594s4.5312 0.28906 6.8828 0.83594z"/>
 <path d="m319.03 500.05c0.19922 0.20312 0.44922 0.44141 0.65625 0.64062 0.99609 0.95312 2.3555 2.2578 3.7227 4.2773 2.7812 4.1055 4.1641 9.1289 4.1641 14.934h9.6445c0-5.8047 1.3828-10.828 4.1641-14.934 1.3672-2.0195 2.7305-3.3242 3.7266-4.2773 0.20703-0.19922 0.45703-0.4375 0.65625-0.64062-1.1797-1.6133-6.7461-4.6797-13.367-4.6797-6.6211 0-12.188 3.0703-13.367 4.6797z"/>
 <path d="m313.63 568.37c0.16016 2.4727 2.5117 4.4883 5.2383 4.4883h27.098c2.6758 0 4.9492-1.9023 5.1836-4.332 0.19922-2.0742-0.94141-4.0352-2.8359-4.8828-3.9766-1.7773-6.8633-4.5508-8.3477-8.0195-0.26172-0.61328-0.51562-1.2461-0.75781-1.9023-0.91406-2.4961-1.5195-6-1.8438-10.613h-10.082c-0.32812 4.5859-0.94141 8.1562-1.8398 10.613l-0.16406 0.45312c-1.4844 4.043-4.668 7.4297-8.957 9.5469-1.7617 0.85938-2.8164 2.6875-2.6914 4.6484z"/>
 <path d="m392.84 394.93 0.003906-2.9336c-5.4102 1.3867-11.031 2.1875-16.812 2.1875s-11.406-0.80078-16.812-2.1875l0.003906 2.9375 16.812 20.277z"/>
 <path d="m444.35 546.43c1.8242-2.5898 3.5469-5.0352 4.8867-9.1641 0.69531-2.1406 1.1602-4.3672 1.3906-6.6523-1-0.28125-2-0.42969-2.9922-0.44922-1.8516-0.035156-3.0469 0.39453-4.4297 0.89063-1.7617 0.62891-3.957 1.4141-6.8281 0.75391-5.2266-1.2031-9.5117-6.4336-9.9688-12.172-0.49219-6.1992 3.4023-12.113 9.4805-14.383 0.11719-0.042968 0.23828-0.082031 0.35938-0.11328l23.605-6.2852 1.7344-14.242c0.19531-1.6016 1.3594-2.918 2.9297-3.3008 1.9648-0.48047 3.9648-0.75 5.9609-0.82812-19.578-31.176-42.828-47.715-60.621-56.406-0.42969 1.7383-0.97656 3.5-1.6523 5.2734 0.80078 1.6016 1.2656 3.4023 1.2656 5.3125v4.168h0.15234c6.5859 0 11.945 5.3516 11.945 11.93 0 4.6211-2.6406 8.6328-6.4922 10.613 1.5977 2.8984 2.4609 6.1641 2.4609 9.5117v3.8008c3.1641 2.3438 5.2109 5.2383 5.2812 8.4531 0.074219 3.3438-1.9258 5.2578-3.6914 6.9531-1.0469 1.0039-2.2305 2.1406-3.3984 3.8633-2.8516 4.2109-3.5977 9.3008-3.6445 13.293 3.2969 3.3672 5.4102 9.3438 5.4102 16.461 0 2.1445-1.7383 3.8828-3.8828 3.8828h-2.3008c0.10547 8.5156 0.78516 15.008 1.9219 18.105 0.22656 0.61328 0.46094 1.207 0.70703 1.7773 1.1016 2.5742 3.5234 4.0938 5.3633 4.9141 5.4648 2.4453 8.75 8.0938 8.1797 14.062-0.30859 3.2109-1.7891 6.0977-3.9961 8.2969 2.4922 2.3438 4.0625 5.6602 4.0625 9.3438v0.21484c0 1.8047-0.37891 3.5195-1.0508 5.0781h10.828c-0.48828-1.3203-0.76953-2.7461-0.76953-4.2383 0-3.9492 1.8828-7.4492 4.7695-9.6367-3.2227-8.8906-3.4492-16.602-0.65234-22.953 1.0352-2.3828 2.3789-4.2852 3.6758-6.1289z"/>
 <path d="m475.02 504.67c-3.5703 1.1875-7.3828 1.5898-11.34 1.1992l-25.238 6.7188c-2.7578 1.1016-4.5195 3.7266-4.3047 6.4336 0.20703 2.5898 2.2578 4.832 3.9727 5.2266 0.59375 0.13672 1.0273 0.019531 2.4766-0.49609 1.6523-0.58984 3.9062-1.375 7.1758-1.3398 2.9141 0.050782 5.8086 0.76953 8.6055 2.1328 1.3594 0.66406 2.2109 2.0586 2.1797 3.5742-0.085937 3.9805-0.73438 7.8672-1.9297 11.551-1.6992 5.2461-3.9453 8.4297-5.9258 11.238-1.1758 1.6719-2.1914 3.1133-2.9297 4.7852-1.9922 4.5234-1.668 10.395 0.94922 17.457h27.938c-2.3125-5.8594-3.3945-11.695-3.207-17.41 0.1875-5.6367 1.5039-9.8242 2.7773-13.875 1.3203-4.1992 2.5703-8.168 2.4492-13.75-0.10156-4.7578-1.1719-9.543-3.1719-14.215-0.5-1.168-0.39844-2.5039 0.27344-3.5781 0.67188-1.0781 1.8281-1.7578 3.0938-1.8242 3.3633-0.17578 6.4141-1.4531 8.1562-3.418 0.78125-0.87891 1.2188-1.8242 1.1719-2.5273-0.078125-1.1211-1.3906-2.8164-2.6875-3.0781-0.58203-0.11719-1.2305 0.22656-3.1641 1.4766-1.8086 1.1719-4.0664 2.6367-7.3203 3.7188z"/>
 <path d="m275.8 527.59h-10.398c-2.6797 0-4.8594 2.1797-4.8594 4.8594v2.8984h20.125v-2.8984c0-2.6797-2.1797-4.8594-4.8594-4.8594z"/>
 <path d="m263.15 498.12c1.2383 0 2.4023 0.58984 3.1328 1.5898 0.73047 1 0.94141 2.2891 0.56641 3.4688-0.29687 0.92578-0.60937 1.7227-0.95312 2.4375-1.3906 2.8594-3.7109 4.9688-5.582 6.4844-0.65625 0.53125-1.7422 1.6641-1.6484 3.2773 0.14062 2.4102 3.2305 4.4453 6.7461 4.4453h10.391c3.5156 0 6.6055-2.0352 6.7461-4.4453 0.09375-1.6094-0.99219-2.7461-1.6484-3.2773-1.8711-1.5156-4.1953-3.625-5.582-6.4883-0.34375-0.71094-0.65625-1.5078-0.95312-2.4336-0.375-1.1797-0.16797-2.4688 0.56641-3.4688 0.73047-1 1.8945-1.5898 3.1328-1.5898 2.625 0 4.8438-1.6094 4.8438-3.5195v-2.5547c0-1.9062-2.2188-3.5195-4.8438-3.5195h-3.5078-0.015625-0.015625-11.375c-2.625 0-4.8438 1.6094-4.8438 3.5195v2.5547c0 1.9102 2.2188 3.5195 4.8438 3.5195z"/>
 <path d="m468.95 488.38-1.1953 9.832c1.6719-0.097656 3.2852-0.39453 4.8203-0.90625 2.3125-0.76953 3.9609-1.8359 5.5547-2.8672 1.5703-1.0195 3.2812-2.1211 5.3242-2.5586-1.8555-1.2695-4.0664-2.3711-6.6602-3.0312-2.5195-0.64062-5.1953-0.79688-7.8438-0.46875z"/>
 <g clip-path="url(#b)">
  <path d="m292.35 208.22c0.91797 1.1641 1.0898 2.75 0.44922 4.082-4.9219 10.227-8.3359 21.062-10.148 32.203-2.2031 13.523-2.0312 27.195 0.48828 40.734 1.1445-0.75 2.3594-1.3984 3.6562-1.9219 0.32812-0.13281 0.66797-0.25781 1.0156-0.375 1.8438-13.461 6.4023-26.66 13.266-38.32 7.4219-12.617 17.676-23.691 29.656-32.016 1.3398-0.93359 3.1172-0.92578 4.4531 0.015625s1.9375 2.6133 1.5117 4.1875l-4.9688 18.336c2.7656-1.1484 5.5977-2.0938 8.4727-2.8242 5.8008-1.4727 10.18-1.6719 14.039-1.8477 3.7852-0.17187 7.0508-0.32031 11.016-1.6758 5.418-1.8516 10.461-5.4258 14.992-10.621 1.0273-1.1797 2.6641-1.625 4.1484-1.1328 1.4844 0.49219 2.5273 1.832 2.6484 3.3906 0.24219 3.2031 0.089844 6.4258-0.45312 9.5742-0.34375 2.0039-0.84375 3.9648-1.4922 5.8828 6.7344-2.0078 14.691-5.6875 22.227-12.395 11.562-10.289 16.195-22.68 17.93-29.148 0.43359-1.6133 1.8477-2.7695 3.5156-2.8711 1.6719-0.125 3.2109 0.875 3.8359 2.4258 4.9336 12.242 8.5352 25.062 10.711 38.098 1.7227 10.332 2.5586 20.828 2.4883 31.312 0.75781-0.71875 1.4844-1.4648 2.1836-2.2383 1.2852-1.418 2.4883-2.9375 3.5781-4.5195 0.96875-1.4102 2.7461-2.0156 4.375-1.5 1.6289 0.51953 2.7266 2.0391 2.707 3.75-0.050782 3.9727 0.30859 7.9609 1.0664 11.855 0.80469 4.1328 2.0625 8.1719 3.7422 12.039 0.59766 0.17578 1.2031 0.38672 1.8008 0.62891 1.2344 0.49609 2.3984 1.1055 3.4922 1.8125 0.44531-3.2422 0.66797-6.5117 0.66016-9.7852-0.015624-5.9844-0.79297-11.957-2.3125-17.75-0.36719-1.4062 0.082032-2.9062 1.1641-3.875 1.0859-0.97266 2.6211-1.2539 3.9805-0.73047 2.0625 0.79297 4.0469 1.7969 5.9023 2.9805 0.83984 0.53906 1.6562 1.1133 2.4414 1.7227 0.83203-12.645-0.42188-34.957-15.559-54.383-10.062-12.91-22.531-19.773-31.215-23.258-0.8125-0.32812-1.4922-0.91797-1.9258-1.6797-5.9609-10.457-14.203-19.441-23.836-25.977-18.137-12.312-37.145-13.797-49.387-13.035l3.6797 7.4375c0.57812 1.168 0.53125 2.5508-0.125 3.6797-0.65625 1.125-1.8398 1.8477-3.1406 1.918-13.094 0.71484-25.469 4.0508-36.785 9.918-23.734 12.309-36.387 32.328-42.711 46.41l8.9023-1.9102c1.4492-0.30859 2.9492 0.23047 3.8633 1.3945z"/>
 </g>
 <path d="m257.08 573.01h27.098c2.6758 0 4.9492-1.9023 5.1836-4.332 0.19922-2.0742-0.94141-4.0352-2.8359-4.8828-3.9766-1.7773-6.8633-4.5508-8.3477-8.0195-0.26172-0.61328-0.51562-1.2461-0.75781-1.9023-1.2461-3.4062-1.7891-7.3242-2-10.762l-9.7695-0.003906c-0.21094 3.4375-0.75 7.3516-2 10.758l-0.16406 0.45312c-1.4844 4.043-4.668 7.4297-8.957 9.5469-1.7617 0.86719-2.8125 2.6914-2.6875 4.6523 0.16406 2.4766 2.5117 4.4922 5.2383 4.4922z"/>
 <g clip-path="url(#a)">
  <path d="m497.46 597.15h-296.14v15.645h349.36v-15.645z"/>
 </g>
 <path d="m255.98 589.39h29.246c2.2891 0 4.1523-1.8633 4.1523-4.1523s-1.8633-4.1523-4.1523-4.1523l-29.246 0.003907c-2.2891 0-4.1523 1.8633-4.1523 4.1523 0.003906 2.2852 1.8633 4.1484 4.1523 4.1484z"/>
 <path d="m397.51 422.73c1.5664 0 3.0625 0.3125 4.4375 0.86328 2.1016-7.207 1.6172-13.816-1.4766-18.59-0.82031-1.2617-1.8398-2.4141-3.0469-3.4414l-15.84 19.105 7.3828 5.6758c2.168-2.2227 5.1953-3.6133 8.543-3.6133z"/>
 <path d="m281.43 316.39c2.6016 7.1445 8.0586 12.328 13.984 13.797-3.2109-10.902-5.7656-24.148-7.4297-38.809-7.2656 4.2031-10.223 14.934-6.5547 25.012z"/>
 <path d="m464.07 291.37c-1.6133 14.219-4.0664 27.098-7.1445 37.809 6.4375-2.2305 11.543-6.8711 13.695-12.793 3.668-10.078 0.71484-20.809-6.5508-25.016z"/>
 <path d="m380.33 589.39h34.367c2.8008 0 5.0781-2.2773 5.0781-5.0781v-0.21484c0-2.8008-2.2773-5.0781-5.0781-5.0781h-34.367c-2.8008 0-5.0781 2.2773-5.0781 5.0781v0.21484c0 2.7969 2.2773 5.0781 5.0781 5.0781z"/>
 <path d="m375.27 552.61c2.1328-1.0508 4.9375-3.0117 6.1797-6.3945l0.19141-0.52344c1.1367-3.0977 1.8164-9.5898 1.9219-18.102h-2.1367c-2.1445 0-3.8828-1.7383-3.8828-3.8828 0-7.1211 2.1133-13.098 5.4141-16.465-0.046875-3.9883-0.79297-9.0781-3.6445-13.289-1.168-1.7227-2.3516-2.8594-3.3984-3.8633-1.7656-1.6914-3.7656-3.6094-3.6914-6.9531 0.070312-3.2109 2.1211-6.1055 5.2812-8.4531v-3.8008c0-3.3477 0.86328-6.6133 2.4609-9.5117-3.8516-1.9844-6.4922-5.9961-6.4922-10.613 0-6.5781 5.3594-11.93 11.945-11.93h0.15234v-4.168c0-0.37109 0.023438-0.73438 0.054688-1.0938l-9.5938-7.3789-20.379 15.672c-0.68359 0.52344-1.5156 0.80469-2.3672 0.80469-0.19531 0-0.39062-0.015624-0.58984-0.042968-1.0469-0.16016-1.9844-0.74219-2.5898-1.6094-3.8633-5.5195-6.4922-11.309-7.875-16.941-17.902 8.7383-41.371 25.453-61.047 57.066 5.4414 1.25 9.4805 5.6641 9.4805 10.918v2.5547c0 4.2852-2.6797 8.0195-6.6211 9.9258 0.57031 0.57031 1.1836 1.0898 1.7422 1.543 3.0781 2.5 4.7227 6.0547 4.5078 9.7539-0.19922 3.4141-2.0078 6.4375-4.7773 8.5664 1.8164 2.1875 2.9102 4.9922 2.9102 8.0508v6.7773c0 2.1445-1.7383 3.8828-3.8828 3.8828h-1.3516c0.23047 3.1992 0.74219 6 1.5078 8.0898 0.19141 0.52344 0.39453 1.0312 0.60156 1.5156 0.89062 2.0742 2.875 3.3164 4.3828 3.9883 4.9375 2.207 7.9102 7.3164 7.3945 12.711-0.26953 2.8398-1.5508 5.3984-3.4727 7.3672 2.1758 2.1602 3.5312 5.1523 3.5312 8.4531 0 1.4609-0.27734 2.8555-0.76172 4.1523h10.262c-0.5-1.3203-0.78516-2.7461-0.78516-4.2383 0-3.3164 1.3555-6.3242 3.5352-8.4961-2.0039-2.0586-3.3125-4.7617-3.5078-7.7695-0.33203-5.1055 2.4141-9.8672 7.0039-12.125 1.7656-0.86719 4.082-2.4844 5.0977-5.2539l0.16406-0.44922c0.60938-1.6602 1.0703-4.418 1.3477-7.9414h-1.0469c-2.1445 0-3.8828-1.7383-3.8828-3.8828v-6.6992c0-4.2656 2.1328-8.0391 5.3828-10.324-0.10156-0.37109-0.16406-0.76172-0.15234-1.1641 0.1875-4.7305-0.76562-8.6719-2.8203-11.711-0.90625-1.3398-1.8008-2.1953-2.668-3.0273-1.4688-1.4062-3.293-3.1562-3.2266-6.1953 0.078125-3.6328 2.8438-6.6094 6.6641-8.7422v-5.8789c0-8.0664 6.5703-14.629 14.645-14.629 8.0742 0 14.645 6.5625 14.645 14.629v5.8789c3.8203 2.1367 6.582 5.1094 6.6641 8.7422 0.066406 3.0391-1.7578 4.7891-3.2266 6.1953-0.86719 0.82812-1.7617 1.6875-2.668 3.0273-2.0547 3.0352-3.0039 6.9609-2.8242 11.68 0.015625 0.41406-0.050781 0.8125-0.15625 1.1914 3.2539 2.2852 5.3945 6.0586 5.3945 10.332v6.6992c0 2.1445-1.7383 3.8828-3.8828 3.8828h-1.1914c0.27734 3.5234 0.74219 6.2773 1.3477 7.9414 0.19141 0.52344 0.39453 1.0312 0.60156 1.5156 0.89062 2.0742 2.875 3.3164 4.3828 3.9883 4.9375 2.207 7.9102 7.3164 7.3945 12.711-0.27344 2.8438-1.5586 5.4062-3.4844 7.3789 2.1836 2.1758 3.543 5.1836 3.543 8.5 0 1.4922-0.28516 2.918-0.78516 4.2383h10.391c-0.67578-1.5586-1.0508-3.2734-1.0508-5.0781v-0.21484c0-3.6797 1.5664-6.9961 4.0547-9.3359-2.2969-2.293-3.8008-5.3359-4.0234-8.7305-0.35937-5.6562 2.6836-10.922 7.7578-13.422z"/>
 <path d="m351.58 405c-2.2383 3.4531-3.0938 7.8203-2.6562 12.613 0.054687 0.25391 0.085937 0.51172 0.089844 0.76562 0.55469 4.6953 2.3203 9.7617 5.25 14.754l16.207-12.465-15.84-19.105c-1.2109 1.0234-2.2305 2.1758-3.0508 3.4375z"/>
 <path d="m486.43 527.94c0.14844 6.8633-1.3516 11.633-2.8047 16.25-1.168 3.7148-2.2734 7.2227-2.4258 11.801-0.18359 5.5469 1.1406 11.309 3.9102 17.156h8.5664c-1.0781-4.3516-1.6172-7.9844-1.875-10.516-1.1914-11.594 0.53516-21.398 2.0625-30.047 1.6406-9.3086 2.9805-16.984 0.66797-24.77-0.46484 0.83203-1.0273 1.6445-1.7031 2.4102-2.1328 2.4062-5.0977 4.1875-8.5 5.1758 1.3086 4.1367 2.0117 8.3359 2.1016 12.539z"/>
</svg>