<svg xmlns="http://www.w3.org/2000/svg" version="1.1" viewBox="199 139.21 354 473.58">
 <defs>
  <clipPath id="a">
   <path d="m199 139.21h354v473.58h-354z"/>
  </clipPath>
 </defs>
 <path d="m416.11 288.57c0 3.7266-2.9922 6.75-6.6797 6.75-3.6914 0-6.6836-3.0234-6.6836-6.75 0-3.7305 2.9922-6.7539 6.6836-6.7539 3.6875 0 6.6797 3.0234 6.6797 6.7539"/>
 <path d="m403.39 258.46c0.089844-0.015625 8.9531-1.4297 14.805 2.7344 0.66016 0.47266 1.4219 0.69531 2.1758 0.69531 1.1758 0 2.332-0.54688 3.0664-1.5781 1.2031-1.6914 0.80859-4.0391-0.88281-5.2422-8.4805-6.0391-19.98-4.1016-20.469-4.0156-2.043 0.35938-3.4102 2.3086-3.0508 4.3516 0.36328 2.0508 2.3125 3.4141 4.3555 3.0547z"/>
 <path d="m349.3 288.57c0 3.7266-2.9922 6.75-6.6797 6.75-3.6914 0-6.6836-3.0234-6.6836-6.75 0-3.7305 2.9922-6.7539 6.6836-6.7539 3.6875 0 6.6797 3.0234 6.6797 6.7539"/>
 <path d="m349.95 251.05c-0.48437-0.085938-11.973-2.0234-20.449 4.0156-1.6914 1.2031-2.0859 3.5508-0.88281 5.2422 0.73438 1.0312 1.8906 1.5781 3.0664 1.5781 0.75391 0 1.5156-0.22656 2.1758-0.69531 5.8555-4.168 14.613-2.7617 14.793-2.7344 2.0391 0.36328 3.9844-1.0078 4.3477-3.0508 0.35938-2.0469-1.0078-3.9961-3.0508-4.3555z"/>
 <g clip-path="url(#a)">
  <path d="m548.89 582.61h-44.672c0.47266-1.2773 0.74609-2.6562 0.74609-4.1016 0-4.8281-2.8945-8.9766-7-10.727-1.4453-5.0117-2.082-9.1484-2.3594-11.844-1.0469-10.188 0.46094-18.746 1.9219-27.023 1.9688-11.18 3.832-21.738-1.7656-33.098-0.90625-1.8398-1.8164-3.3086-2.4336-4.2344-1.8828-3.1133-7.043-10.191-16.312-13.148-21.281-36.434-47.777-54.684-67.168-63.699 0.13281-5.5039-1.1445-10.566-3.8516-14.746-1.5898-2.4492-3.668-4.5781-6.1836-6.3516l0.003906-4.5117c21.816-8.1445 39-25.672 46.242-37.871 1.9844-3.3398 3.8477-7.4336 5.5664-12.148 10.715-1.8438 19.613-8.8086 23.055-18.258 3.4023-9.3555 2.207-19.25-2.3906-26.309 1.1172-5.2578 1.6836-10.637 1.6719-16.016-0.007813-3.5898-0.27344-7.1758-0.78906-10.723 1.4609 1.1992 2.7852 2.5742 3.9609 4.1094 0.91016 1.1875 2.4375 1.7266 3.8906 1.3633 1.4531-0.35938 2.5547-1.5508 2.8008-3.0273 1.4883-8.8711 4.75-39.848-15.691-66.074-8.2695-10.609-19.363-19.02-32.145-24.379-6.2812-10.633-14.812-19.785-24.734-26.52-22.512-15.27-46.195-14.906-58.312-13.336-1.2031 0.15625-2.2578 0.88281-2.832 1.957-0.57031 1.0703-0.59375 2.3516-0.054687 3.4375l3.5273 7.1328c-11.68 1.3008-22.777 4.6445-33.051 9.9727-29.191 15.133-42.348 41.254-47.594 55.477-0.47266 1.2852-0.21094 2.7266 0.6875 3.7617 0.89844 1.0352 2.2852 1.5 3.6289 1.2148l8.3633-1.793c-3.4648 8.4961-5.9609 17.34-7.4297 26.383-2.5469 15.645-2.0195 31.473 1.5508 47.078-4.5898 7.0547-5.7852 16.945-2.3828 26.293 4.0469 11.125 13.309 18.422 23.219 18.707 1.6719 4.5273 3.4805 8.4648 5.4023 11.703 7.2422 12.199 24.426 29.727 46.242 37.871l0.003906 4.5117c-2.5156 1.7773-4.5938 3.9023-6.1836 6.3555-2.707 4.1797-3.9453 9.2578-3.8164 14.727-19.195 8.9219-45.418 26.918-66.617 62.719h-8.8828c-6.7305 0-12.207 4.9023-12.207 10.926v2.4766c0 4.1484 2.5977 7.7617 6.4102 9.6133-0.46875 0.46484-1.0273 0.96094-1.6875 1.4961-2.9805 2.418-4.5703 5.8633-4.3633 9.4453 0.19141 3.3047 1.9453 6.2344 4.625 8.293-1.7578 2.1172-2.8164 4.8359-2.8164 7.7969v6.5625c0 2.0742 1.6836 3.7578 3.7578 3.7578h1.168c-0.22266 3.0977-0.71875 5.8086-1.4609 7.8281l-0.16016 0.4375c-0.98438 2.6836-3.2305 4.25-4.9375 5.0898-4.4453 2.1875-7.1055 6.7969-6.7812 11.742 0.1875 2.8867 1.4336 5.5273 3.332 7.5664-2.0742 2.0859-3.3594 4.9609-3.3594 8.125 0 1.4141 0.26953 2.7656 0.73828 4.0195l-45.875-0.011719c-2.0742 0-3.7578 1.6836-3.7578 3.7578v22.664c0 2.0742 1.6836 3.7578 3.7578 3.7578h345.78c2.0742 0 3.7578-1.6836 3.7578-3.7578v-22.664c0.003906-2.0742-1.6797-3.7578-3.7539-3.7578zm-95.074-62.785c-2.707-1.3203-5.5117-2.0156-8.332-2.0625-3.1641-0.035157-5.3516 0.72656-6.9492 1.2969-1.4023 0.5-1.8242 0.61328-2.3984 0.48047-1.6602-0.37891-3.6445-2.5508-3.8438-5.0586-0.21094-2.6211 1.4961-5.1602 4.168-6.2305l24.438-6.5039c3.832 0.375 7.5234-0.011719 10.98-1.1641 3.1523-1.0469 5.3359-2.4609 7.0938-3.6016 1.8711-1.2109 2.4961-1.543 3.0625-1.4297 1.2539 0.25391 2.5273 1.8945 2.6016 2.9805 0.046875 0.67969-0.37891 1.5938-1.1328 2.4453-1.6875 1.9023-4.6406 3.1406-7.8984 3.3086-1.2266 0.0625-2.3477 0.72266-2.9961 1.7656-0.64844 1.043-0.74609 2.3359-0.26562 3.4648 1.9375 4.5234 2.9727 9.1523 3.0742 13.762 0.11719 5.4062-1.0938 9.2461-2.3711 13.312-1.2344 3.9219-2.5078 7.9766-2.6914 13.438-0.18359 5.5352 0.86719 11.184 3.1055 16.859h-27.051c-2.5312-6.8398-2.8477-12.523-0.91797-16.902 0.71484-1.6211 1.6953-3.0156 2.8359-4.6328 1.918-2.7188 4.0898-5.8047 5.7383-10.883 1.1562-3.5703 1.7891-7.332 1.8711-11.184 0.019532-1.4688-0.80469-2.8203-2.1211-3.4609zm19.77-34.562c2.5117 0.63672 4.6484 1.707 6.4492 2.9336-1.9766 0.42188-3.6328 1.4922-5.1562 2.4766-1.543 1-3.1406 2.0312-5.3789 2.7773-1.4883 0.49609-3.0508 0.78125-4.668 0.875l1.1602-9.5195c2.5664-0.31641 5.1523-0.16406 7.5938 0.45703zm16.535 42.352c-1.4766 8.375-3.1484 17.867-1.9961 29.094 0.25 2.4492 0.77344 5.9688 1.8164 10.184h-8.2969c-2.6797-5.6602-3.9609-11.238-3.7852-16.609 0.14453-4.4297 1.2148-7.8281 2.3477-11.426 1.4062-4.4688 2.8594-9.0898 2.7148-15.734-0.089843-4.0703-0.76953-8.1367-2.0352-12.145 3.293-0.95703 6.1641-2.6836 8.2305-5.0117 0.65625-0.74219 1.1992-1.5273 1.6484-2.3359 2.2383 7.5352 0.94531 14.969-0.64453 23.984zm-47.984 50.895c0-2.2617 1.7227-4.1016 3.8398-4.1016h47.629c2.1172 0 3.8398 1.8398 3.8398 4.1016 0 2.2617-1.7227 4.1016-3.8398 4.1016h-47.629c-2.1172 0-3.8398-1.8398-3.8398-4.1016zm25.328-101.34c-1.9297 0.074219-3.8672 0.33594-5.7695 0.80469-1.5156 0.37109-2.6445 1.6445-2.8359 3.1953l-1.6797 13.789-22.855 6.0859c-0.11719 0.03125-0.23438 0.070313-0.34766 0.10938-5.8828 2.1992-9.6602 7.9258-9.1797 13.926 0.44531 5.5547 4.5938 10.625 9.6523 11.785 2.7812 0.64062 4.9062-0.12109 6.6133-0.72656 1.3398-0.48047 2.5-0.89453 4.2891-0.86328 0.96094 0.019531 1.9297 0.16406 2.8984 0.43359-0.22266 2.2109-0.67578 4.3711-1.3477 6.4414-1.2969 4-2.9648 6.3633-4.7305 8.8711-1.2578 1.7812-2.5547 3.625-3.5703 5.9336-2.707 6.1484-2.4844 13.617 0.63281 22.223-2.793 2.1172-4.6172 5.5078-4.6172 9.332 0 1.4453 0.27344 2.8242 0.74609 4.1016h-10.484c0.65234-1.5078 1.0195-3.1719 1.0195-4.918v-0.20703c0-3.5664-1.5195-6.7773-3.9336-9.0469 2.1367-2.1289 3.5742-4.9219 3.8711-8.0352 0.55078-5.7812-2.6328-11.254-7.9219-13.617-1.7773-0.79688-4.125-2.2656-5.1914-4.7578-0.23828-0.55469-0.46484-1.1289-0.68359-1.7227-1.0977-3-1.7578-9.2852-1.8633-17.531h2.2266c2.0742 0 3.7578-1.6836 3.7578-3.7578 0-6.8945-2.0469-12.68-5.2383-15.941 0.042969-3.8633 0.76953-8.793 3.5273-12.871 1.1289-1.668 2.2773-2.7656 3.2891-3.7383 1.7109-1.6367 3.6445-3.4961 3.5742-6.7305-0.070312-3.1094-2.0547-5.9141-5.1172-8.1836v-3.6797c0-3.2422-0.83594-6.4023-2.3828-9.2109 3.7305-1.918 6.2852-5.8047 6.2852-10.277 0-6.3711-5.1875-11.551-11.566-11.551h-0.14453v-4.0352c0-1.8477-0.44922-3.5898-1.2227-5.1445 0.65625-1.7148 1.1836-3.4219 1.6016-5.1055 17.23 8.4219 39.742 24.438 58.699 54.621zm-92.195 100.53v-0.20703c0-2.7109 2.207-4.918 4.918-4.918h33.277c2.7109 0 4.918 2.207 4.918 4.918v0.20703c0 2.7109-2.207 4.918-4.918 4.918h-33.277c-2.7109-0.003906-4.918-2.207-4.918-4.918zm14.844-122.83c-0.55078-1.4688-1.9531-2.4375-3.5195-2.4375h-1.4805c-2.2344 0-4.0508-1.8125-4.0508-4.0352 0-2.2266 1.8164-4.0352 4.0508-4.0352h3.9023c2.0742 0 3.7578-1.6836 3.7578-3.7578v-7.7969c0-2.2266 1.8164-4.0352 4.0508-4.0352s4.0508 1.8125 4.0508 4.0352v7.7969c0 2.0742 1.6836 3.7578 3.7578 3.7578h3.9023c2.2344 0 4.0508 1.8125 4.0508 4.0352 0 2.2266-1.8164 4.0352-4.0508 4.0352h-1.4805c-1.5664 0-2.9688 0.97266-3.5195 2.4375-0.55078 1.4688-0.13281 3.1211 1.0469 4.1523 2.6055 2.2734 4.0508 5.3633 4.0898 8.7109-3.7305-1.2852-7.8789-2.0117-11.852-2.0117-3.9688 0-8.1172 0.72656-11.852 2.0117 0.042969-3.3516 1.4883-6.4414 4.0898-8.7109 1.1875-1.0312 1.6055-2.6875 1.0547-4.1523zm-6.9609 21.934c0.054688-0.03125 0.11328-0.054687 0.16406-0.089844 3.1211-1.7734 8.0391-3.4766 13.512-3.4766 5.4688 0 10.391 1.7031 13.512 3.4766 0.054688 0.035157 0.11719 0.0625 0.17188 0.09375 1.9023 1.1055 3.0977 2.2266 3.2734 2.9727-0.23047 0.30078-0.80469 0.85156-1.2383 1.2695-1.1562 1.1055-2.7383 2.625-4.3125 4.9492-3.1133 4.5938-4.3242 9.7773-4.6875 14.238h-13.422c-0.36719-4.4609-1.5781-9.6406-4.6875-14.238-1.5781-2.3281-3.1602-3.8438-4.3125-4.9492-0.43359-0.41797-1.0078-0.96484-1.2383-1.2656 0.16016-0.75 1.3594-1.8711 3.2656-2.9805zm3.9336 38.461h-1.8047c0.60547-4 2.0898-6.4414 3.0703-7.2305 0.097656-0.054688 0.18359-0.11719 0.27344-0.18359 0.11719-0.0625 0.22656-0.097656 0.32031-0.097656h15.766c0.078125 0 0.17578 0.03125 0.27734 0.082031 0.10547 0.074219 0.21094 0.14453 0.32422 0.20703 0.98047 0.79688 2.457 3.2344 3.0586 7.2227zm1.2383 28.145 0.1875-0.50781c1.4414-3.9297 2.2188-10.695 2.3242-20.117h11.82c0.10547 9.4258 0.88281 16.188 2.3242 20.121 0.26562 0.72266 0.54688 1.4258 0.83203 2.0938 1.6016 3.7383 4.7266 6.7344 9.0312 8.6602 2.3438 1.0469 3.75 3.4766 3.5078 6.0391-0.28906 3.0078-3.082 5.3633-6.3672 5.3633h-30.273c-3.3438 0-6.2266-2.4922-6.4258-5.5547-0.15625-2.4258 1.1445-4.6836 3.3242-5.7578 4.6562-2.293 8.1094-5.9648 9.7148-10.34zm12.797-121.32c-1.3281-0.53516-2.7773-0.83594-4.2969-0.83594-3.2422 0-6.1719 1.3438-8.2773 3.5l-7.1484-5.4961 15.34-18.5c1.168 0.99609 2.1562 2.1094 2.9492 3.332 3 4.625 3.4648 11.023 1.4336 18zm66.496-103.8c-2.0859 5.7344-7.0273 10.227-13.262 12.387 2.9805-10.371 5.3516-22.84 6.918-36.605 7.0312 4.0742 9.8945 14.461 6.3438 24.219zm-182.01-69.594c1.7578-10.785 5.0625-21.277 9.8281-31.18 0.62109-1.293 0.45312-2.8281-0.43359-3.9531-0.88672-1.1289-2.3359-1.6484-3.7422-1.3516l-8.6211 1.8477c6.125-13.637 18.375-33.02 41.355-44.938 10.957-5.6797 22.938-8.9102 35.617-9.6016 1.2617-0.070312 2.4062-0.76562 3.043-1.8594 0.63672-1.0898 0.68359-2.4297 0.12109-3.5625l-3.5625-7.2031c11.855-0.73828 30.258 0.69922 47.812 12.613 9.3281 6.332 17.309 15.027 23.082 25.152 0.42188 0.73828 1.0781 1.3125 1.8672 1.625 8.4102 3.375 20.48 10.02 30.227 22.52 14.66 18.805 15.875 40.41 15.066 52.656-0.76172-0.59375-1.5508-1.1484-2.3633-1.668-1.7969-1.1484-3.7188-2.1211-5.7148-2.8867-1.3164-0.50391-2.8047-0.23047-3.8555 0.70703-1.0508 0.94141-1.4883 2.3906-1.1289 3.7539 1.4688 5.6094 2.2227 11.391 2.2383 17.188 0.007812 3.168-0.21094 6.3359-0.64062 9.4727-1.0625-0.68359-2.1875-1.2734-3.3828-1.7539-0.57812-0.23438-1.168-0.4375-1.7461-0.60938-1.6289-3.7422-2.8438-7.6523-3.625-11.656-0.73438-3.7695-1.082-7.6328-1.0312-11.48 0.023437-1.6562-1.043-3.1289-2.6211-3.6289s-3.2969 0.089843-4.2344 1.4531c-1.0547 1.5312-2.2188 3.0039-3.4648 4.375-0.67969 0.74609-1.3828 1.4688-2.1133 2.1641 0.066406-10.152-0.74219-20.316-2.4102-30.316-2.1055-12.621-5.5977-25.035-10.371-36.891-0.60547-1.5-2.0977-2.4688-3.7148-2.3477-1.6133 0.097656-2.9844 1.2188-3.4023 2.7773-1.6797 6.2656-6.168 18.262-17.359 28.223-7.2969 6.4961-15 10.059-21.523 12.004 0.62891-1.8555 1.1094-3.7539 1.4414-5.6953 0.52344-3.0508 0.67188-6.168 0.4375-9.2695-0.11328-1.5117-1.125-2.8047-2.5625-3.2812-1.4375-0.47656-3.0234-0.046875-4.0195 1.0977-4.3867 5.0312-9.2695 8.4922-14.516 10.285-3.8398 1.3125-7.0039 1.457-10.664 1.625-3.7383 0.17188-7.9766 0.36328-13.594 1.7891-2.7852 0.70703-5.5273 1.6211-8.2031 2.7344l4.8086-17.754c0.41406-1.5234-0.17188-3.1445-1.4648-4.0547-1.293-0.91016-3.0117-0.91797-4.3086-0.015626-11.598 8.0625-21.527 18.781-28.715 31-6.6406 11.293-11.059 24.07-12.844 37.105-0.33594 0.11328-0.66406 0.23438-0.98438 0.36328-1.2539 0.50391-2.4336 1.1328-3.5391 1.8594-2.4375-13.102-2.6016-26.34-0.46875-39.434zm-1.1836 69.594c-3.5508-9.7578-0.69141-20.148 6.3477-24.219 1.6133 14.195 4.0859 27.02 7.1953 37.578-5.7422-1.4219-11.027-6.4414-13.543-13.359zm28.016 29.141c-1.9961-3.3633-3.8867-7.6875-5.6211-12.766-0.03125-0.10547-0.066407-0.20703-0.10547-0.3125-4-11.828-7.1719-27.715-8.9219-45.324 1.4453-12.777 5.6367-25.363 12.133-36.406 4.75-8.0742 10.793-15.441 17.77-21.707l-4.0234 14.84c-0.39844 1.4766 0.13281 3.0469 1.3516 3.9727 1.2188 0.92578 2.875 1.0234 4.1914 0.24609 4.4219-2.6133 9.1172-4.5625 13.961-5.793 4.875-1.2383 8.5391-1.4062 12.086-1.5664 4.0625-0.18359 7.9023-0.35937 12.758-2.0195 3.6836-1.2617 7.1953-3.1523 10.504-5.6484-0.70312 3.0977-1.8906 6.0625-3.543 8.8359-0.74609 1.2539-0.69922 2.8281 0.12109 4.0352 0.82031 1.207 2.2617 1.8281 3.707 1.5977 8.4375-1.3594 20.926-5.1445 32.512-15.453 8.0039-7.125 12.973-15.164 16.027-21.898 2.8047 8.3984 4.9531 17.023 6.4102 25.754 2.0273 12.133 2.7266 24.512 2.0781 36.797-0.074219 1.4102 0.64844 2.7461 1.875 3.4531 1.2227 0.70703 2.7383 0.66797 3.9258-0.10156 2.6797-1.7383 5.1836-3.7344 7.4648-5.9453 0.16016 1.1484 0.34766 2.293 0.57031 3.4297 0.94531 4.8633 2.4727 9.6055 4.5195 14.121-1.7656 17.414-4.9141 33.113-8.8828 44.824-0.039062 0.10156-0.074219 0.20313-0.10547 0.30469-1.7305 5.0625-3.6172 9.3711-5.6094 12.727-8.875 14.953-33.984 38.672-63.578 38.672-29.586 0-54.695-23.719-63.574-38.668zm63.578 46.188c5.5977 0 11.043-0.77734 16.281-2.1211l-0.003907 2.8398-16.277 19.633-16.277-19.633-0.003906-2.8438c5.2383 1.3477 10.684 2.125 16.281 2.125zm-23.668 10.473c0.79297-1.2227 1.7812-2.3398 2.9492-3.3359l15.34 18.5-15.695 12.07c-2.8359-4.832-4.543-9.7383-5.082-14.285-0.003907-0.24609-0.03125-0.49219-0.085938-0.73828-0.42188-4.6367 0.40625-8.8672 2.5742-12.211zm-9.0547 18.461c1.3359 5.4531 3.8789 11.062 7.625 16.406 0.58984 0.83984 1.4961 1.4023 2.5078 1.5586 0.19141 0.027344 0.37891 0.042969 0.57031 0.042969 0.82422 0 1.6289-0.26953 2.2891-0.77734l19.73-15.176 9.293 7.1445c-0.03125 0.34766-0.054687 0.70312-0.054687 1.0625v4.0352h-0.14453c-6.3789 0-11.566 5.1836-11.566 11.551 0 4.4727 2.5586 8.3594 6.2852 10.277-1.5469 2.8047-2.3828 5.9688-2.3828 9.2109v3.6797c-3.0625 2.2695-5.0469 5.0742-5.1133 8.1836-0.070313 3.2344 1.8633 5.0938 3.5742 6.7305 1.0117 0.96875 2.1602 2.0703 3.2891 3.7383 2.7617 4.0781 3.4844 9.0078 3.5273 12.867-3.1953 3.2578-5.2422 9.0469-5.2422 15.941 0 2.0742 1.6836 3.7578 3.7578 3.7578h2.0664c-0.10156 8.2461-0.76172 14.531-1.8594 17.527l-0.1875 0.50391c-1.2031 3.2773-3.918 5.1758-5.9844 6.1914-4.9141 2.4219-7.8594 7.5195-7.5039 12.992 0.21484 3.2891 1.6719 6.2344 3.8945 8.4531-2.4102 2.2695-3.9258 5.4766-3.9258 9.043v0.20703c0 1.7461 0.36719 3.4062 1.0195 4.918h-10.062c0.48438-1.2773 0.76172-2.6562 0.76172-4.1016 0-3.1719-1.2812-6.0469-3.3438-8.1445 1.8125-1.9453 3.0234-4.457 3.2891-7.2344 0.5-5.2227-2.3789-10.168-7.1602-12.309-1.4609-0.65234-3.3789-1.8555-4.2422-3.8633-0.20312-0.47266-0.39844-0.96094-0.58203-1.4688-0.58984-1.6094-1.0391-4.2773-1.3047-7.6914h1.1523c2.0742 0 3.7578-1.6836 3.7578-3.7578v-6.4844c0-4.1328-2.0703-7.7891-5.2227-10.004 0.10156-0.36719 0.16797-0.75 0.15234-1.1523-0.17578-4.5664 0.74609-8.3711 2.7344-11.309 0.87891-1.2969 1.7461-2.1289 2.582-2.9297 1.4219-1.3633 3.1914-3.0547 3.125-5.9961-0.078125-3.5195-2.7539-6.3984-6.4531-8.4648v-5.6953c0-7.8086-6.3633-14.164-14.18-14.164-7.8203 0-14.18 6.3555-14.18 14.164v5.6953c-3.6992 2.0664-6.375 4.9492-6.4531 8.4648-0.0625 2.9414 1.7031 4.6367 3.125 5.9961 0.83984 0.80469 1.707 1.6367 2.582 2.9297 1.9922 2.9453 2.9141 6.7578 2.7344 11.34-0.015625 0.39453 0.046875 0.76953 0.14453 1.1289-3.1484 2.2109-5.2109 5.8633-5.2109 9.9961v6.4844c0 2.0742 1.6836 3.7578 3.7578 3.7578h1.0156c-0.26953 3.4102-0.71484 6.0781-1.3047 7.6875l-0.16016 0.4375c-0.98437 2.6836-3.2305 4.25-4.9375 5.0898-4.4453 2.1875-7.1055 6.7969-6.7812 11.742 0.1875 2.8906 1.4414 5.5352 3.3516 7.5742-2.0859 2.1016-3.375 4.9922-3.375 8.1797 0 1.4453 0.27734 2.8242 0.76172 4.1016h-9.9375c0.46875-1.2539 0.73828-2.6055 0.73828-4.0195 0-3.1484-1.2695-6.0039-3.3203-8.0859 1.8008-1.9453 3-4.457 3.2656-7.2344 0.5-5.2227-2.3789-10.168-7.1602-12.309-1.4609-0.65234-3.3789-1.8555-4.2422-3.8633-0.20312-0.47266-0.39844-0.96094-0.58203-1.4688-0.74219-2.0234-1.2383-4.7344-1.4609-7.832h1.3086c2.0742 0 3.7578-1.6836 3.7578-3.7578v-6.5625c0-2.9609-1.0586-5.6797-2.8164-7.7969 2.6797-2.0625 4.4336-4.9883 4.625-8.293 0.20703-3.582-1.3828-7.0273-4.3633-9.4453-0.53906-0.4375-1.1328-0.94141-1.6875-1.4961 3.8125-1.8477 6.4102-5.4648 6.4102-9.6133v-2.4766c0-5.0859-3.9102-9.3594-9.1797-10.57 19.047-30.602 41.77-46.785 59.105-55.246zm-2.8555 62.332c-2.2812-0.53125-4.5742-0.80859-6.6641-0.80859-2.0859 0-4.3828 0.27734-6.6641 0.80859v-2.8711c0-3.6641 2.9883-6.6445 6.6641-6.6445s6.6641 2.9805 6.6641 6.6445zm-6.668 6.7109c6.4102 0 11.801 2.9727 12.941 4.5312-0.19531 0.19922-0.43359 0.42969-0.63672 0.62109-0.96484 0.92188-2.2812 2.1875-3.6055 4.1445-2.6914 3.9727-4.0312 8.8398-4.0312 14.457h-9.3398c0-5.6211-1.3398-10.484-4.0312-14.457-1.3242-1.957-2.6445-3.2188-3.6055-4.1445-0.19922-0.19141-0.44141-0.42188-0.63672-0.62109 1.1445-1.5586 6.5352-4.5312 12.945-4.5312zm-9.7383 38.703v-2.7266c0-2.5938 2.1094-4.7031 4.7031-4.7031h10.074c2.5938 0 4.7031 2.1094 4.7031 4.7031v2.7266zm2.8477 18.23 0.16016-0.44141c0.87109-2.3789 1.4648-5.8359 1.7812-10.277h9.7617c0.31641 4.4688 0.89844 7.8594 1.7852 10.277 0.23438 0.63672 0.47656 1.25 0.73047 1.8438 1.4414 3.3594 4.2344 6.043 8.082 7.7656 1.8359 0.82031 2.9375 2.7227 2.7461 4.7305-0.23047 2.4258-2.5312 4.4727-5.0195 4.4727h-26.234c-2.582 0-4.9062-2.1172-5.0703-4.6211-0.125-1.8984 0.89844-3.668 2.6016-4.5078 4.1562-2.0469 7.2344-5.3281 8.6758-9.2422zm-11.285 29.992c0-2.2617 1.8398-4.1016 4.1016-4.1016h28.148c2.2617 0 4.1016 1.8398 4.1016 4.1016 0 2.2617-1.8398 4.1016-4.1016 4.1016h-28.152c-2.2578 0-4.0977-1.8398-4.0977-4.1016zm-53.559-90.145c0-1.8477 2.1484-3.4062 4.6914-3.4062h11.008 0.015624 0.015626 3.3984c2.543 0 4.6914 1.5625 4.6914 3.4062v2.4766c0 1.8477-2.1484 3.4062-4.6914 3.4062-1.1992 0-2.3281 0.57031-3.0352 1.5391s-0.91016 2.2148-0.54688 3.3594c0.28516 0.89453 0.58594 1.6641 0.92188 2.3555 1.3438 2.7695 3.5977 4.8125 5.4062 6.2812 0.63672 0.51562 1.6875 1.6133 1.5977 3.1719-0.13672 2.332-3.125 4.3047-6.5312 4.3047h-10.062c-3.4023 0-6.3945-1.9727-6.5312-4.3047-0.089844-1.5586 0.96094-2.6562 1.5938-3.1719 1.8086-1.4688 4.0586-3.5078 5.4062-6.2812 0.33594-0.6875 0.63672-1.4609 0.92188-2.3594 0.36328-1.1445 0.16016-2.3906-0.54688-3.3594s-1.8359-1.5391-3.0352-1.5391c-2.543 0-4.6914-1.5586-4.6914-3.4062zm16.938 34.41h0.007812c2.5938 0 4.7031 2.1094 4.7031 4.7031v2.8047l-19.48 0.003906v-2.8047c0-2.5938 2.1094-4.7031 4.7031-4.7031h0.007813zm-20.598 35.129c4.1523-2.0469 7.2344-5.3281 8.6719-9.2422l0.16016-0.44141c1.207-3.2969 1.7305-7.0898 1.9375-10.418h9.4609c0.20312 3.3281 0.72656 7.1211 1.9375 10.418 0.23438 0.63672 0.47656 1.25 0.73047 1.8438 1.4414 3.3594 4.2344 6.043 8.082 7.7656 1.8359 0.82031 2.9375 2.7227 2.7461 4.7305-0.23438 2.4375-2.5156 4.5-4.9844 4.5l-26.25-0.003906c-2.5508 0-4.9297-2.1719-5.0898-4.6484-0.125-1.8984 0.89453-3.668 2.5977-4.5039zm-2.6133 20.688c0-2.2148 1.8047-4.0195 4.0195-4.0195h1.082l26.25 0.003907h0.98828c2.2148 0 4.0195 1.8047 4.0195 4.0195s-1.8047 4.0195-4.0195 4.0195l-28.316-0.003906c-2.2188 0-4.0234-1.8008-4.0234-4.0195zm289.36 26.684h-338.27v-15.148h286.75l51.52 0.003906z"/>
 </g>
 <path d="m376.11 308.03h0.046875c11.082 0 18.52-7.2422 18.828-7.5508 1.4727-1.4609 1.4844-3.8398 0.023437-5.3164-1.4609-1.4727-3.8398-1.4844-5.3164-0.023437-0.054688 0.054687-5.6406 5.375-13.539 5.375h-0.03125-0.19141-0.03125c-7.8906 0-13.461-5.3008-13.551-5.3867-1.4727-1.4453-3.8477-1.4336-5.3047 0.035156-1.4609 1.4727-1.4492 3.8555 0.023438 5.3164 0.3125 0.30859 7.7461 7.5508 18.828 7.5508h0.046875l-0.007812-3.7578z"/>
</svg>